<mxfile host="app.diagrams.net" modified="2023-08-01T18:55:42.740Z" agent="Mozilla/5.0 (Windows NT 10.0; Win64; x64; rv:109.0) Gecko/20100101 Firefox/115.0" version="21.6.3" etag="I4NKCghhnu2LO2jBiB9j" type="github">
  <diagram name="Page-1" id="DcNd4Jaa2J11vzP_rRoY">
    <mxGraphModel>
      <root>
        <mxCell id="0" />
        <mxCell id="1" parent="0" />
      </root>
    </mxGraphModel>
  </diagram>
</mxfile>
